{
  "accessors": [
    {
      "name": "bottle_normal-Mesh_positions",
      "componentType": 5126,
      "count": 956,
      "min": [
        -6.242114067077637,
        6.131190776824951,
        2.1754229068756104
      ],
      "max": [
        -5.76031494140625,
        7.679866790771484,
        2.6573541164398193
      ],
      "type": "VEC3",
      "bufferView": 0,
      "byteOffset": 0
    },
    {
      "name": "bottle_normal-Mesh_normals",
      "componentType": 5126,
      "count": 956,
      "min": [
        -0.9998999834060669,
        -0.9997000098228455,
        -1
      ],
      "max": [
        1,
        0.704800009727478,
        1
      ],
      "type": "VEC3",
      "bufferView": 0,
      "byteOffset": 19632
    },
    {
      "name": "bottle_normal-Mesh_texcoords",
      "componentType": 5126,
      "count": 956,
      "min": [
        0,
        0
      ],
      "max": [
        1,
        1
      ],
      "type": "VEC2",
      "bufferView": 1,
      "byteOffset": 0
    },
    {
      "name": "bottle_normal-Mesh_0_indices",
      "componentType": 5123,
      "count": 1896,
      "min": [
        0
      ],
      "max": [
        955
      ],
      "type": "SCALAR",
      "bufferView": 2,
      "byteOffset": 0
    },
    {
      "name": "bottle_normal_fluid-Mesh_positions",
      "componentType": 5126,
      "count": 608,
      "min": [
        -6.223235130310059,
        6.142834186553955,
        2.193481922149658
      ],
      "max": [
        -5.777864933013916,
        7.46346378326416,
        2.638974905014038
      ],
      "type": "VEC3",
      "bufferView": 0,
      "byteOffset": 11472
    },
    {
      "name": "bottle_normal_fluid-Mesh_normals",
      "componentType": 5126,
      "count": 608,
      "min": [
        -0.9987000226974487,
        -0.9998000264167786,
        -0.9987000226974487
      ],
      "max": [
        0.9987999796867371,
        0.9994000196456909,
        0.9987000226974487
      ],
      "type": "VEC3",
      "bufferView": 0,
      "byteOffset": 31104
    },
    {
      "name": "bottle_normal_fluid-Mesh_texcoords",
      "componentType": 5126,
      "count": 608,
      "min": [
        0,
        0
      ],
      "max": [
        1,
        1
      ],
      "type": "VEC2",
      "bufferView": 1,
      "byteOffset": 7648
    },
    {
      "name": "bottle_normal_fluid-Mesh_0_indices",
      "componentType": 5123,
      "count": 1200,
      "min": [
        0
      ],
      "max": [
        607
      ],
      "type": "SCALAR",
      "bufferView": 2,
      "byteOffset": 3792
    },
    {
      "name": "bottle_normal_label-Mesh_positions",
      "componentType": 5126,
      "count": 72,
      "min": [
        -6.231840133666992,
        6.267148017883301,
        2.184617042541504
      ],
      "max": [
        -5.771844863891602,
        6.977605819702148,
        2.6447319984436035
      ],
      "type": "VEC3",
      "bufferView": 0,
      "byteOffset": 18768
    },
    {
      "name": "bottle_normal_label-Mesh_normals",
      "componentType": 5126,
      "count": 72,
      "min": [
        -1,
        0,
        -1
      ],
      "max": [
        0.995199978351593,
        0,
        1
      ],
      "type": "VEC3",
      "bufferView": 0,
      "byteOffset": 38400
    },
    {
      "name": "bottle_normal_label-Mesh_texcoords",
      "componentType": 5126,
      "count": 72,
      "min": [
        -0.0032999999821186066,
        0
      ],
      "max": [
        0.9966999888420105,
        1
      ],
      "type": "VEC2",
      "bufferView": 1,
      "byteOffset": 12512
    },
    {
      "name": "bottle_normal_label-Mesh_0_indices",
      "componentType": 5123,
      "count": 192,
      "min": [
        0
      ],
      "max": [
        71
      ],
      "type": "SCALAR",
      "bufferView": 2,
      "byteOffset": 6192
    }
  ],
  "asset": {
    "generator": "obj2gltf",
    "version": "2.0"
  },
  "buffers": [
    {
      "name": "bottle-normal_scaled",
      "byteLength": 500340,
      "uri": "data:application/octet-stream;base64,"
    }
  ],
  "bufferViews": [
    {
      "name": "bufferView_0",
      "buffer": 0,
      "byteLength": 39264,
      "byteOffset": 0,
      "byteStride": 12,
      "target": 34962
    },
    {
      "name": "bufferView_1",
      "buffer": 0,
      "byteLength": 13088,
      "byteOffset": 39264,
      "byteStride": 8,
      "target": 34962
    },
    {
      "name": "bufferView_2",
      "buffer": 0,
      "byteLength": 6576,
      "byteOffset": 52352,
      "target": 34963
    },
    {
      "buffer": 0,
      "byteOffset": 58928,
      "byteLength": 441409
    }
  ],
  "images": [
    {
      "name": "fave-bottle-label",
      "mimeType": "image/png",
      "bufferView": 3
    }
  ],
  "materials": [
    {
      "name": "bottle_mat",
      "pbrMetallicRoughness": {
        "baseColorFactor": [
          0.388235,
          0,
          0,
          0.9
        ],
        "metallicFactor": 0,
        "roughnessFactor": 0.968627451
      },
      "emissiveFactor": [
        0,
        0,
        0
      ],
      "alphaMode": "BLEND",
      "doubleSided": true
    },
    {
      "name": "bottle_fluid_mat",
      "pbrMetallicRoughness": {
        "baseColorFactor": [
          0.384314,
          0.047059,
          0.047059,
          0.75
        ],
        "metallicFactor": 0,
        "roughnessFactor": 0.976470588
      },
      "emissiveFactor": [
        0,
        0,
        0
      ],
      "alphaMode": "BLEND",
      "doubleSided": true
    },
    {
      "name": "bottle_label_mat",
      "pbrMetallicRoughness": {
        "baseColorTexture": {
          "index": 0
        },
        "baseColorFactor": [
          1,
          1,
          1,
          1
        ],
        "metallicFactor": 0,
        "roughnessFactor": 0.982352941
      },
      "emissiveFactor": [
        0,
        0,
        0
      ],
      "alphaMode": "OPAQUE",
      "doubleSided": false
    }
  ],
  "meshes": [
    {
      "name": "bottle_normal-Mesh",
      "primitives": [
        {
          "attributes": {
            "POSITION": 0,
            "NORMAL": 1,
            "TEXCOORD_0": 2
          },
          "indices": 3,
          "material": 0,
          "mode": 4
        }
      ]
    },
    {
      "name": "bottle_normal_fluid-Mesh",
      "primitives": [
        {
          "attributes": {
            "POSITION": 4,
            "NORMAL": 5,
            "TEXCOORD_0": 6
          },
          "indices": 7,
          "material": 1,
          "mode": 4
        }
      ]
    },
    {
      "name": "bottle_normal_label-Mesh",
      "primitives": [
        {
          "attributes": {
            "POSITION": 8,
            "NORMAL": 9,
            "TEXCOORD_0": 10
          },
          "indices": 11,
          "material": 2,
          "mode": 4
        }
      ]
    }
  ],
  "nodes": [
    {
      "name": "bottle_normal",
      "mesh": 0
    },
    {
      "name": "bottle_normal_fluid",
      "mesh": 1
    },
    {
      "name": "bottle_normal_label",
      "mesh": 2
    }
  ],
  "samplers": [
    {
      "magFilter": 9729,
      "minFilter": 9986,
      "wrapS": 10497,
      "wrapT": 10497
    }
  ],
  "scene": 0,
  "scenes": [
    {
      "nodes": [
        0,
        1,
        2
      ]
    }
  ],
  "textures": [
    {
      "name": "fave-bottle-label",
      "sampler": 0,
      "source": 0
    }
  ]
}
