{
  "accessors": [
    {
      "name": "bottle_med_fliud-Mesh_positions",
      "componentType": 5126,
      "count": 405,
      "min": [
        -0.22117500007152557,
        0.013938000425696373,
        -0.22184999287128448
      ],
      "max": [
        0.2225250005722046,
        1.1466039419174194,
        0.22184999287128448
      ],
      "type": "VEC3",
      "bufferView": 0,
      "byteOffset": 0
    },
    {
      "name": "bottle_med_fliud-Mesh_normals",
      "componentType": 5126,
      "count": 405,
      "min": [
        -0.996999979019165,
        -1,
        -0.9970999956130981
      ],
      "max": [
        0.9965000152587891,
        0.9883000254631042,
        0.996999979019165
      ],
      "type": "VEC3",
      "bufferView": 0,
      "byteOffset": 17196
    },
    {
      "name": "bottle_med_fliud-Mesh_texcoords",
      "componentType": 5126,
      "count": 405,
      "min": [
        0,
        0
      ],
      "max": [
        1,
        1
      ],
      "type": "VEC2",
      "bufferView": 1,
      "byteOffset": 0
    },
    {
      "name": "bottle_med_fliud-Mesh_0_indices",
      "componentType": 5123,
      "count": 786,
      "min": [
        0
      ],
      "max": [
        404
      ],
      "type": "SCALAR",
      "bufferView": 2,
      "byteOffset": 0
    },
    {
      "name": "bottle_med-Mesh_positions",
      "componentType": 5126,
      "count": 956,
      "min": [
        -0.24088899791240692,
        0.000003000000106112566,
        -0.24074000120162964
      ],
      "max": [
        0.24090899527072906,
        1.5482540130615234,
        0.24105800688266754
      ],
      "type": "VEC3",
      "bufferView": 0,
      "byteOffset": 4860
    },
    {
      "name": "bottle_med-Mesh_normals",
      "componentType": 5126,
      "count": 956,
      "min": [
        -0.9998999834060669,
        -0.9997000098228455,
        -1
      ],
      "max": [
        1,
        0.704800009727478,
        1
      ],
      "type": "VEC3",
      "bufferView": 0,
      "byteOffset": 22056
    },
    {
      "name": "bottle_med-Mesh_texcoords",
      "componentType": 5126,
      "count": 956,
      "min": [
        0,
        0
      ],
      "max": [
        1,
        1
      ],
      "type": "VEC2",
      "bufferView": 1,
      "byteOffset": 3240
    },
    {
      "name": "bottle_med-Mesh_0_indices",
      "componentType": 5123,
      "count": 1896,
      "min": [
        0
      ],
      "max": [
        955
      ],
      "type": "SCALAR",
      "bufferView": 2,
      "byteOffset": 1572
    },
    {
      "name": "bottle_med_label-Mesh_positions",
      "componentType": 5126,
      "count": 72,
      "min": [
        -0.23061400651931763,
        0.13592299818992615,
        -0.2315489947795868
      ],
      "max": [
        0.22937999665737152,
        0.8461859822273254,
        0.22844000160694122
      ],
      "type": "VEC3",
      "bufferView": 0,
      "byteOffset": 16332
    },
    {
      "name": "bottle_med_label-Mesh_normals",
      "componentType": 5126,
      "count": 72,
      "min": [
        -1,
        0,
        -1
      ],
      "max": [
        0.995199978351593,
        0,
        1
      ],
      "type": "VEC3",
      "bufferView": 0,
      "byteOffset": 33528
    },
    {
      "name": "bottle_med_label-Mesh_texcoords",
      "componentType": 5126,
      "count": 72,
      "min": [
        -0.0032999999821186066,
        0
      ],
      "max": [
        0.9966999888420105,
        1
      ],
      "type": "VEC2",
      "bufferView": 1,
      "byteOffset": 10888
    },
    {
      "name": "bottle_med_label-Mesh_0_indices",
      "componentType": 5123,
      "count": 192,
      "min": [
        0
      ],
      "max": [
        71
      ],
      "type": "SCALAR",
      "bufferView": 2,
      "byteOffset": 5364
    }
  ],
  "asset": {
    "generator": "obj2gltf",
    "version": "2.0"
  },
  "buffers": [
    {
      "name": "bottle-med_scaled",
      "byteLength": 270776,
      "uri": "data:application/octet-stream;base64,"
    }
  ],
  "bufferViews": [
    {
      "name": "bufferView_0",
      "buffer": 0,
      "byteLength": 34392,
      "byteOffset": 0,
      "byteStride": 12,
      "target": 34962
    },
    {
      "name": "bufferView_1",
      "buffer": 0,
      "byteLength": 11464,
      "byteOffset": 34392,
      "byteStride": 8,
      "target": 34962
    },
    {
      "name": "bufferView_2",
      "buffer": 0,
      "byteLength": 5748,
      "byteOffset": 45856,
      "target": 34963
    },
    {
      "buffer": 0,
      "byteOffset": 51604,
      "byteLength": 219172
    }
  ],
  "images": [
    {
      "name": "fave-bottle-label",
      "mimeType": "image/jpeg",
      "bufferView": 3
    }
  ],
  "materials": [
    {
      "name": "bottle_fluid_mat",
      "pbrMetallicRoughness": {
        "baseColorFactor": [
          0.384314,
          0.047059,
          0.047059,
          0.75
        ],
        "metallicFactor": 0,
        "roughnessFactor": 0.976470588
      },
      "emissiveFactor": [
        0,
        0,
        0
      ],
      "alphaMode": "BLEND",
      "doubleSided": true
    },
    {
      "name": "bottle_mat",
      "pbrMetallicRoughness": {
        "baseColorFactor": [
          0.388235,
          0,
          0,
          0.9
        ],
        "metallicFactor": 0,
        "roughnessFactor": 0.966666667
      },
      "emissiveFactor": [
        0,
        0,
        0
      ],
      "alphaMode": "BLEND",
      "doubleSided": true
    },
    {
      "name": "bottle_label_mat",
      "pbrMetallicRoughness": {
        "baseColorTexture": {
          "index": 0
        },
        "baseColorFactor": [
          1,
          1,
          1,
          1
        ],
        "metallicFactor": 0,
        "roughnessFactor": 0.980392157
      },
      "emissiveFactor": [
        0,
        0,
        0
      ],
      "alphaMode": "OPAQUE",
      "doubleSided": false
    }
  ],
  "meshes": [
    {
      "name": "bottle_med_fliud-Mesh",
      "primitives": [
        {
          "attributes": {
            "POSITION": 0,
            "NORMAL": 1,
            "TEXCOORD_0": 2
          },
          "indices": 3,
          "material": 0,
          "mode": 4
        }
      ]
    },
    {
      "name": "bottle_med-Mesh",
      "primitives": [
        {
          "attributes": {
            "POSITION": 4,
            "NORMAL": 5,
            "TEXCOORD_0": 6
          },
          "indices": 7,
          "material": 1,
          "mode": 4
        }
      ]
    },
    {
      "name": "bottle_med_label-Mesh",
      "primitives": [
        {
          "attributes": {
            "POSITION": 8,
            "NORMAL": 9,
            "TEXCOORD_0": 10
          },
          "indices": 11,
          "material": 2,
          "mode": 4
        }
      ]
    }
  ],
  "nodes": [
    {
      "name": "bottle_med_fliud",
      "mesh": 0
    },
    {
      "name": "bottle_med",
      "mesh": 1
    },
    {
      "name": "bottle_med_label",
      "mesh": 2
    }
  ],
  "samplers": [
    {
      "magFilter": 9729,
      "minFilter": 9986,
      "wrapS": 10497,
      "wrapT": 10497
    }
  ],
  "scene": 0,
  "scenes": [
    {
      "nodes": [
        0,
        1,
        2
      ]
    }
  ],
  "textures": [
    {
      "name": "fave-bottle-label",
      "sampler": 0,
      "source": 0
    }
  ]
}
