{
  "accessors": [
    {
      "name": "bottle_low-Mesh_positions",
      "componentType": 5126,
      "count": 956,
      "min": [
        0.3591110110282898,
        0.000003000000106112566,
        -0.24074000120162964
      ],
      "max": [
        0.8409090042114258,
        1.5482540130615234,
        0.24105800688266754
      ],
      "type": "VEC3",
      "bufferView": 0,
      "byteOffset": 0
    },
    {
      "name": "bottle_low-Mesh_normals",
      "componentType": 5126,
      "count": 956,
      "min": [
        -0.9998999834060669,
        -0.9997000098228455,
        -1
      ],
      "max": [
        1,
        0.704800009727478,
        1
      ],
      "type": "VEC3",
      "bufferView": 0,
      "byteOffset": 15048
    },
    {
      "name": "bottle_low-Mesh_texcoords",
      "componentType": 5126,
      "count": 956,
      "min": [
        0,
        0
      ],
      "max": [
        1,
        1
      ],
      "type": "VEC2",
      "bufferView": 1,
      "byteOffset": 0
    },
    {
      "name": "bottle_low-Mesh_0_indices",
      "componentType": 5123,
      "count": 1896,
      "min": [
        0
      ],
      "max": [
        955
      ],
      "type": "SCALAR",
      "bufferView": 2,
      "byteOffset": 0
    },
    {
      "name": "bottle_low_label-Mesh_positions",
      "componentType": 5126,
      "count": 72,
      "min": [
        0.3693859875202179,
        0.13592299818992615,
        -0.2315489947795868
      ],
      "max": [
        0.829380989074707,
        0.8461859822273254,
        0.22844000160694122
      ],
      "type": "VEC3",
      "bufferView": 0,
      "byteOffset": 11472
    },
    {
      "name": "bottle_low_label-Mesh_normals",
      "componentType": 5126,
      "count": 72,
      "min": [
        -1,
        0,
        -1
      ],
      "max": [
        0.995199978351593,
        0,
        1
      ],
      "type": "VEC3",
      "bufferView": 0,
      "byteOffset": 26520
    },
    {
      "name": "bottle_low_label-Mesh_texcoords",
      "componentType": 5126,
      "count": 72,
      "min": [
        -0.0032999999821186066,
        0
      ],
      "max": [
        0.9966999888420105,
        1
      ],
      "type": "VEC2",
      "bufferView": 1,
      "byteOffset": 7648
    },
    {
      "name": "bottle_low_label-Mesh_0_indices",
      "componentType": 5123,
      "count": 192,
      "min": [
        0
      ],
      "max": [
        71
      ],
      "type": "SCALAR",
      "bufferView": 2,
      "byteOffset": 3792
    },
    {
      "name": "bottle_low_fluid-Mesh_positions",
      "componentType": 5126,
      "count": 226,
      "min": [
        0.3825039863586426,
        0.011322000063955784,
        -0.21817100048065186
      ],
      "max": [
        0.8188459873199463,
        0.9042999744415283,
        0.21817100048065186
      ],
      "type": "VEC3",
      "bufferView": 0,
      "byteOffset": 12336
    },
    {
      "name": "bottle_low_fluid-Mesh_normals",
      "componentType": 5126,
      "count": 226,
      "min": [
        -0.9962000250816345,
        -0.9997000098228455,
        -0.9962000250816345
      ],
      "max": [
        0.9965000152587891,
        0.9994999766349792,
        0.9731000065803528
      ],
      "type": "VEC3",
      "bufferView": 0,
      "byteOffset": 27384
    },
    {
      "name": "bottle_low_fluid-Mesh_texcoords",
      "componentType": 5126,
      "count": 226,
      "min": [
        0,
        0
      ],
      "max": [
        1,
        1
      ],
      "type": "VEC2",
      "bufferView": 1,
      "byteOffset": 8224
    },
    {
      "name": "bottle_low_fluid-Mesh_0_indices",
      "componentType": 5123,
      "count": 450,
      "min": [
        0
      ],
      "max": [
        225
      ],
      "type": "SCALAR",
      "bufferView": 2,
      "byteOffset": 4176
    }
  ],
  "asset": {
    "generator": "obj2gltf",
    "version": "2.0"
  },
  "buffers": [
    {
      "name": "bottle-low_scaled",
      "byteLength": 264376,
      "uri": "data:application/octet-stream;base64,"
    }
  ],
  "bufferViews": [
    {
      "name": "bufferView_0",
      "buffer": 0,
      "byteLength": 30096,
      "byteOffset": 0,
      "byteStride": 12,
      "target": 34962
    },
    {
      "name": "bufferView_1",
      "buffer": 0,
      "byteLength": 10032,
      "byteOffset": 30096,
      "byteStride": 8,
      "target": 34962
    },
    {
      "name": "bufferView_2",
      "buffer": 0,
      "byteLength": 5076,
      "byteOffset": 40128,
      "target": 34963
    },
    {
      "buffer": 0,
      "byteOffset": 45204,
      "byteLength": 219172
    }
  ],
  "images": [
    {
      "name": "fave-bottle-label",
      "mimeType": "image/jpeg",
      "bufferView": 3
    }
  ],
  "materials": [
    {
      "name": "bottle_mat",
      "pbrMetallicRoughness": {
        "baseColorFactor": [
          0.388235,
          0,
          0,
          0.9
        ],
        "metallicFactor": 0,
        "roughnessFactor": 0.966666667
      },
      "emissiveFactor": [
        0,
        0,
        0
      ],
      "alphaMode": "BLEND",
      "doubleSided": true
    },
    {
      "name": "bottle_label_mat",
      "pbrMetallicRoughness": {
        "baseColorTexture": {
          "index": 0
        },
        "baseColorFactor": [
          1,
          1,
          1,
          1
        ],
        "metallicFactor": 0,
        "roughnessFactor": 0.980392157
      },
      "emissiveFactor": [
        0,
        0,
        0
      ],
      "alphaMode": "OPAQUE",
      "doubleSided": false
    },
    {
      "name": "bottle_fluid_mat",
      "pbrMetallicRoughness": {
        "baseColorFactor": [
          0.384314,
          0.047059,
          0.047059,
          0.75
        ],
        "metallicFactor": 0,
        "roughnessFactor": 0.976470588
      },
      "emissiveFactor": [
        0,
        0,
        0
      ],
      "alphaMode": "BLEND",
      "doubleSided": true
    }
  ],
  "meshes": [
    {
      "name": "bottle_low-Mesh",
      "primitives": [
        {
          "attributes": {
            "POSITION": 0,
            "NORMAL": 1,
            "TEXCOORD_0": 2
          },
          "indices": 3,
          "material": 0,
          "mode": 4
        }
      ]
    },
    {
      "name": "bottle_low_label-Mesh",
      "primitives": [
        {
          "attributes": {
            "POSITION": 4,
            "NORMAL": 5,
            "TEXCOORD_0": 6
          },
          "indices": 7,
          "material": 1,
          "mode": 4
        }
      ]
    },
    {
      "name": "bottle_low_fluid-Mesh",
      "primitives": [
        {
          "attributes": {
            "POSITION": 8,
            "NORMAL": 9,
            "TEXCOORD_0": 10
          },
          "indices": 11,
          "material": 2,
          "mode": 4
        }
      ]
    }
  ],
  "nodes": [
    {
      "name": "bottle_low",
      "mesh": 0
    },
    {
      "name": "bottle_low_label",
      "mesh": 1
    },
    {
      "name": "bottle_low_fluid",
      "mesh": 2
    }
  ],
  "samplers": [
    {
      "magFilter": 9729,
      "minFilter": 9986,
      "wrapS": 10497,
      "wrapT": 10497
    }
  ],
  "scene": 0,
  "scenes": [
    {
      "nodes": [
        0,
        1,
        2
      ]
    }
  ],
  "textures": [
    {
      "name": "fave-bottle-label",
      "sampler": 0,
      "source": 0
    }
  ]
}
